[2020-02-17T07:40:52.531371+01:00] application.INFO: SomeLog [] []
[2020-02-17T07:40:53.615590+01:00] application.INFO: ffprobe running command "bin/ffprobe.exe" -help -loglevel quiet [] []
[2020-02-17T07:40:54.751346+01:00] application.INFO: ffprobe executed command successfully [] []
[2020-02-17T07:40:54.762900+01:00] application.INFO: ffprobe running command "bin/ffprobe.exe" "./data/video/1.mkv" -show_streams -print_format json [] []
[2020-02-17T07:40:55.168256+01:00] application.INFO: ffprobe executed command successfully [] []
[2020-02-17T07:40:55.849132+01:00] application.INFO: ffmpeg running command "bin/ffmpeg.exe" -y -ss 00:00:10.00 -i "./data/video/1.mkv" -vframes 1 -f image2 frame.jpg [] []
[2020-02-17T07:40:57.257536+01:00] application.INFO: ffmpeg executed command successfully [] []
[2020-02-17T07:40:57.751254+01:00] application.INFO: ffmpeg running command "bin/ffmpeg.exe" -y -i "./data/video/1.mkv" -async 1 -metadata:s:v:0 start_time=0 -threads 12 -vcodec libx264 -acodec libfaac -b:v 1000k -refs 6 -coder 1 -sc_threshold 40 -flags +loop -me_range 16 -subq 7 -i_qfactor 0.71 -qcomp 0.6 -qdiff 4 -trellis 1 -b:a 128k -vf "[in]scale=320:240 [out]" -pass 1 -passlogfile "C:\Users\hp\AppData\Local\Temp\ffmpeg-passes5e4a3579a2729xx3df/pass-5e4a3579a28c4" export-x264.mp4 [] []
[2020-02-17T07:40:57.954801+01:00] application.INFO: ffprobe running command "bin/ffprobe.exe" "./data/video/1.mkv" -show_format -print_format json [] []
[2020-02-17T07:40:58.164498+01:00] application.INFO: ffprobe executed command successfully [] []
[2020-02-17T07:40:58.177400+01:00] application.ERROR: ffmpeg failed to execute command "bin/ffmpeg.exe" -y -i "./data/video/1.mkv" -async 1 -metadata:s:v:0 start_time=0 -threads 12 -vcodec libx264 -acodec libfaac -b:v 1000k -refs 6 -coder 1 -sc_threshold 40 -flags +loop -me_range 16 -subq 7 -i_qfactor 0.71 -qcomp 0.6 -qdiff 4 -trellis 1 -b:a 128k -vf "[in]scale=320:240 [out]" -pass 1 -passlogfile "C:\Users\hp\AppData\Local\Temp\ffmpeg-passes5e4a3579a2729xx3df/pass-5e4a3579a28c4" export-x264.mp4: ffmpeg version git-2020-02-13-6d37ca8 Copyright (c) 2000-2020 the FFmpeg developers   built with gcc 9.2.1 (GCC) 20200122   configuration: --enable-gpl --enable-version3 --enable-sdl2 --enable-fontconfig --enable-gnutls --enable-iconv --enable-libass --enable-libdav1d --enable-libbluray --enable-libfreetype --enable-libmp3lame --enable-libopencore-amrnb --enable-libopencore-amrwb --enable-libopenjpeg --enable-libopus --enable-libshine --enable-libsnappy --enable-libsoxr --enable-libtheora --enable-libtwolame --enable-libvpx --enable-libwavpack --enable-libwebp --enable-libx264 --enable-libx265 --enable-libxml2 --enable-libzimg --enable-lzma --enable-zlib --enable-gmp --enable-libvidstab --enable-libvorbis --enable-libvo-amrwbenc --enable-libmysofa --enable-libspeex --enable-libxvid --enable-libaom --enable-libmfx --enable-ffnvcodec --enable-cuvid --enable-d3d11va --enable-nvenc --enable-nvdec --enable-dxva2 --enable-avisynth --enable-libopenmpt --enable-amf   libavutil      56. 41.100 / 56. 41.100   libavcodec     58. 68.102 / 58. 68.102   libavformat    58. 38.100 / 58. 38.100   libavdevice    58.  9.103 / 58.  9.103   libavfilter     7. 75.100 /  7. 75.100   libswscale      5.  6.100 /  5.  6.100   libswresample   3.  6.100 /  3.  6.100   libpostproc    55.  6.100 / 55.  6.100 Input #0, matroska,webm, from './data/video/1.mkv':   Metadata:     COMPATIBLE_BRANDS: isomiso2avc1mp41     MAJOR_BRAND     : isom     MINOR_VERSION   : 512     ENCODER         : IDMmkvlib0.1     LANGUAGE        : und     HANDLER_NAME    : AudioHandler   Duration: 00:05:42.54, start: 0.000000, bitrate: 281 kb/s     Stream #0:0: Video: vp9 (Profile 0), yuv420p(tv, bt709/unknown/unknown), 426x240, SAR 1:1 DAR 71:40, 23.98 fps, 23.98 tbr, 1k tbn, 1k tbc (default)     Stream #0:1: Audio: opus, 48000 Hz, stereo, fltp (default) Unknown encoder 'libfaac'  [] []
[2020-02-17T07:41:00.094199+01:00] application.INFO: SomeLog [] []
[2020-02-17T07:41:00.123706+01:00] application.INFO: ffprobe running command "bin/ffprobe.exe" -help -loglevel quiet [] []
[2020-02-17T07:41:00.329800+01:00] application.INFO: ffprobe executed command successfully [] []
[2020-02-17T07:41:00.330047+01:00] application.INFO: ffprobe running command "bin/ffprobe.exe" "./data/video/1.mkv" -show_streams -print_format json [] []
[2020-02-17T07:41:00.535215+01:00] application.INFO: ffprobe executed command successfully [] []
[2020-02-17T07:41:00.543820+01:00] application.INFO: ffmpeg running command "bin/ffmpeg.exe" -y -ss 00:00:10.00 -i "./data/video/1.mkv" -vframes 1 -f image2 frame.jpg [] []
[2020-02-17T07:41:00.748641+01:00] application.INFO: ffmpeg executed command successfully [] []
[2020-02-17T07:41:00.757724+01:00] application.INFO: ffmpeg running command "bin/ffmpeg.exe" -y -i "./data/video/1.mkv" -async 1 -metadata:s:v:0 start_time=0 -threads 12 -vcodec libx264 -acodec libfaac -b:v 1000k -refs 6 -coder 1 -sc_threshold 40 -flags +loop -me_range 16 -subq 7 -i_qfactor 0.71 -qcomp 0.6 -qdiff 4 -trellis 1 -b:a 128k -vf "[in]scale=320:240 [out]" -pass 1 -passlogfile "C:\Users\hp\AppData\Local\Temp\ffmpeg-passes5e4a357cb885dzmj93/pass-5e4a357cb8a33" export-x264.mp4 [] []
[2020-02-17T07:41:00.962563+01:00] application.INFO: ffprobe running command "bin/ffprobe.exe" "./data/video/1.mkv" -show_format -print_format json [] []
[2020-02-17T07:41:01.167442+01:00] application.INFO: ffprobe executed command successfully [] []
[2020-02-17T07:41:01.168527+01:00] application.ERROR: ffmpeg failed to execute command "bin/ffmpeg.exe" -y -i "./data/video/1.mkv" -async 1 -metadata:s:v:0 start_time=0 -threads 12 -vcodec libx264 -acodec libfaac -b:v 1000k -refs 6 -coder 1 -sc_threshold 40 -flags +loop -me_range 16 -subq 7 -i_qfactor 0.71 -qcomp 0.6 -qdiff 4 -trellis 1 -b:a 128k -vf "[in]scale=320:240 [out]" -pass 1 -passlogfile "C:\Users\hp\AppData\Local\Temp\ffmpeg-passes5e4a357cb885dzmj93/pass-5e4a357cb8a33" export-x264.mp4: ffmpeg version git-2020-02-13-6d37ca8 Copyright (c) 2000-2020 the FFmpeg developers   built with gcc 9.2.1 (GCC) 20200122   configuration: --enable-gpl --enable-version3 --enable-sdl2 --enable-fontconfig --enable-gnutls --enable-iconv --enable-libass --enable-libdav1d --enable-libbluray --enable-libfreetype --enable-libmp3lame --enable-libopencore-amrnb --enable-libopencore-amrwb --enable-libopenjpeg --enable-libopus --enable-libshine --enable-libsnappy --enable-libsoxr --enable-libtheora --enable-libtwolame --enable-libvpx --enable-libwavpack --enable-libwebp --enable-libx264 --enable-libx265 --enable-libxml2 --enable-libzimg --enable-lzma --enable-zlib --enable-gmp --enable-libvidstab --enable-libvorbis --enable-libvo-amrwbenc --enable-libmysofa --enable-libspeex --enable-libxvid --enable-libaom --enable-libmfx --enable-ffnvcodec --enable-cuvid --enable-d3d11va --enable-nvenc --enable-nvdec --enable-dxva2 --enable-avisynth --enable-libopenmpt --enable-amf   libavutil      56. 41.100 / 56. 41.100   libavcodec     58. 68.102 / 58. 68.102   libavformat    58. 38.100 / 58. 38.100   libavdevice    58.  9.103 / 58.  9.103   libavfilter     7. 75.100 /  7. 75.100   libswscale      5.  6.100 /  5.  6.100   libswresample   3.  6.100 /  3.  6.100   libpostproc    55.  6.100 / 55.  6.100 Input #0, matroska,webm, from './data/video/1.mkv':   Metadata:     COMPATIBLE_BRANDS: isomiso2avc1mp41     MAJOR_BRAND     : isom     MINOR_VERSION   : 512     ENCODER         : IDMmkvlib0.1     LANGUAGE        : und     HANDLER_NAME    : AudioHandler   Duration: 00:05:42.54, start: 0.000000, bitrate: 281 kb/s     Stream #0:0: Video: vp9 (Profile 0), yuv420p(tv, bt709/unknown/unknown), 426x240, SAR 1:1 DAR 71:40, 23.98 fps, 23.98 tbr, 1k tbn, 1k tbc (default)     Stream #0:1: Audio: opus, 48000 Hz, stereo, fltp (default) Unknown encoder 'libfaac'  [] []
[2020-02-17T07:45:20.243144+01:00] application.INFO: SomeLog [] []
[2020-02-17T07:45:20.272780+01:00] application.INFO: ffprobe running command "bin/ffprobe.exe" -help -loglevel quiet [] []
[2020-02-17T07:45:20.479300+01:00] application.INFO: ffprobe executed command successfully [] []
[2020-02-17T07:45:20.479471+01:00] application.INFO: ffprobe running command "bin/ffprobe.exe" "./data/video/1.mkv" -show_streams -print_format json [] []
[2020-02-17T07:45:20.683909+01:00] application.INFO: ffprobe executed command successfully [] []
[2020-02-17T07:45:20.695453+01:00] application.INFO: ffmpeg running command "bin/ffmpeg.exe" -y -ss 00:00:10.00 -i "./data/video/1.mkv" -vframes 1 -f image2 frame.jpg [] []
[2020-02-17T07:45:20.900274+01:00] application.INFO: ffmpeg executed command successfully [] []
[2020-02-17T07:45:20.910569+01:00] application.INFO: ffmpeg running command "bin/ffmpeg.exe" -y -i "./data/video/1.mkv" -async 1 -metadata:s:v:0 start_time=0 -threads 12 -vcodec libx264 -acodec libfaac -b:v 1000k -refs 6 -coder 1 -sc_threshold 40 -flags +loop -me_range 16 -subq 7 -i_qfactor 0.71 -qcomp 0.6 -qdiff 4 -trellis 1 -b:a 128k -vf "[in]scale=320:240 [out]" -pass 1 -passlogfile "C:\Users\hp\AppData\Local\Temp\ffmpeg-passes5e4a3680dddfb61dbd/pass-5e4a3680ddfb3" export-x264.mp4 [] []
[2020-02-17T07:45:21.115365+01:00] application.INFO: ffprobe running command "bin/ffprobe.exe" "./data/video/1.mkv" -show_format -print_format json [] []
[2020-02-17T07:45:21.323354+01:00] application.INFO: ffprobe executed command successfully [] []
[2020-02-17T07:45:21.324328+01:00] application.ERROR: ffmpeg failed to execute command "bin/ffmpeg.exe" -y -i "./data/video/1.mkv" -async 1 -metadata:s:v:0 start_time=0 -threads 12 -vcodec libx264 -acodec libfaac -b:v 1000k -refs 6 -coder 1 -sc_threshold 40 -flags +loop -me_range 16 -subq 7 -i_qfactor 0.71 -qcomp 0.6 -qdiff 4 -trellis 1 -b:a 128k -vf "[in]scale=320:240 [out]" -pass 1 -passlogfile "C:\Users\hp\AppData\Local\Temp\ffmpeg-passes5e4a3680dddfb61dbd/pass-5e4a3680ddfb3" export-x264.mp4: ffmpeg version git-2020-02-13-6d37ca8 Copyright (c) 2000-2020 the FFmpeg developers   built with gcc 9.2.1 (GCC) 20200122   configuration: --enable-gpl --enable-version3 --enable-sdl2 --enable-fontconfig --enable-gnutls --enable-iconv --enable-libass --enable-libdav1d --enable-libbluray --enable-libfreetype --enable-libmp3lame --enable-libopencore-amrnb --enable-libopencore-amrwb --enable-libopenjpeg --enable-libopus --enable-libshine --enable-libsnappy --enable-libsoxr --enable-libtheora --enable-libtwolame --enable-libvpx --enable-libwavpack --enable-libwebp --enable-libx264 --enable-libx265 --enable-libxml2 --enable-libzimg --enable-lzma --enable-zlib --enable-gmp --enable-libvidstab --enable-libvorbis --enable-libvo-amrwbenc --enable-libmysofa --enable-libspeex --enable-libxvid --enable-libaom --enable-libmfx --enable-ffnvcodec --enable-cuvid --enable-d3d11va --enable-nvenc --enable-nvdec --enable-dxva2 --enable-avisynth --enable-libopenmpt --enable-amf   libavutil      56. 41.100 / 56. 41.100   libavcodec     58. 68.102 / 58. 68.102   libavformat    58. 38.100 / 58. 38.100   libavdevice    58.  9.103 / 58.  9.103   libavfilter     7. 75.100 /  7. 75.100   libswscale      5.  6.100 /  5.  6.100   libswresample   3.  6.100 /  3.  6.100   libpostproc    55.  6.100 / 55.  6.100 Input #0, matroska,webm, from './data/video/1.mkv':   Metadata:     COMPATIBLE_BRANDS: isomiso2avc1mp41     MAJOR_BRAND     : isom     MINOR_VERSION   : 512     ENCODER         : IDMmkvlib0.1     LANGUAGE        : und     HANDLER_NAME    : AudioHandler   Duration: 00:05:42.54, start: 0.000000, bitrate: 281 kb/s     Stream #0:0: Video: vp9 (Profile 0), yuv420p(tv, bt709/unknown/unknown), 426x240, SAR 1:1 DAR 71:40, 23.98 fps, 23.98 tbr, 1k tbn, 1k tbc (default)     Stream #0:1: Audio: opus, 48000 Hz, stereo, fltp (default) Unknown encoder 'libfaac'  [] []
[2020-02-17T07:45:21.948336+01:00] application.INFO: SomeLog [] []
[2020-02-17T07:45:21.983150+01:00] application.INFO: ffprobe running command "bin/ffprobe.exe" -help -loglevel quiet [] []
[2020-02-17T07:45:22.193995+01:00] application.INFO: ffprobe executed command successfully [] []
[2020-02-17T07:45:22.194242+01:00] application.INFO: ffprobe running command "bin/ffprobe.exe" "./data/video/1.mkv" -show_streams -print_format json [] []
[2020-02-17T07:45:22.399313+01:00] application.INFO: ffprobe executed command successfully [] []
[2020-02-17T07:45:22.407482+01:00] application.INFO: ffmpeg running command "bin/ffmpeg.exe" -y -ss 00:00:10.00 -i "./data/video/1.mkv" -vframes 1 -f image2 frame.jpg [] []
[2020-02-17T07:45:22.611741+01:00] application.INFO: ffmpeg executed command successfully [] []
[2020-02-17T07:45:22.621033+01:00] application.INFO: ffmpeg running command "bin/ffmpeg.exe" -y -i "./data/video/1.mkv" -async 1 -metadata:s:v:0 start_time=0 -threads 12 -vcodec libx264 -acodec libfaac -b:v 1000k -refs 6 -coder 1 -sc_threshold 40 -flags +loop -me_range 16 -subq 7 -i_qfactor 0.71 -qcomp 0.6 -qdiff 4 -trellis 1 -b:a 128k -vf "[in]scale=320:240 [out]" -pass 1 -passlogfile "C:\Users\hp\AppData\Local\Temp\ffmpeg-passes5e4a3682971degwuw4/pass-5e4a368297414" export-x264.mp4 [] []
[2020-02-17T07:45:22.825825+01:00] application.INFO: ffprobe running command "bin/ffprobe.exe" "./data/video/1.mkv" -show_format -print_format json [] []
[2020-02-17T07:45:23.031541+01:00] application.INFO: ffprobe executed command successfully [] []
[2020-02-17T07:45:23.032394+01:00] application.ERROR: ffmpeg failed to execute command "bin/ffmpeg.exe" -y -i "./data/video/1.mkv" -async 1 -metadata:s:v:0 start_time=0 -threads 12 -vcodec libx264 -acodec libfaac -b:v 1000k -refs 6 -coder 1 -sc_threshold 40 -flags +loop -me_range 16 -subq 7 -i_qfactor 0.71 -qcomp 0.6 -qdiff 4 -trellis 1 -b:a 128k -vf "[in]scale=320:240 [out]" -pass 1 -passlogfile "C:\Users\hp\AppData\Local\Temp\ffmpeg-passes5e4a3682971degwuw4/pass-5e4a368297414" export-x264.mp4: ffmpeg version git-2020-02-13-6d37ca8 Copyright (c) 2000-2020 the FFmpeg developers   built with gcc 9.2.1 (GCC) 20200122   configuration: --enable-gpl --enable-version3 --enable-sdl2 --enable-fontconfig --enable-gnutls --enable-iconv --enable-libass --enable-libdav1d --enable-libbluray --enable-libfreetype --enable-libmp3lame --enable-libopencore-amrnb --enable-libopencore-amrwb --enable-libopenjpeg --enable-libopus --enable-libshine --enable-libsnappy --enable-libsoxr --enable-libtheora --enable-libtwolame --enable-libvpx --enable-libwavpack --enable-libwebp --enable-libx264 --enable-libx265 --enable-libxml2 --enable-libzimg --enable-lzma --enable-zlib --enable-gmp --enable-libvidstab --enable-libvorbis --enable-libvo-amrwbenc --enable-libmysofa --enable-libspeex --enable-libxvid --enable-libaom --enable-libmfx --enable-ffnvcodec --enable-cuvid --enable-d3d11va --enable-nvenc --enable-nvdec --enable-dxva2 --enable-avisynth --enable-libopenmpt --enable-amf   libavutil      56. 41.100 / 56. 41.100   libavcodec     58. 68.102 / 58. 68.102   libavformat    58. 38.100 / 58. 38.100   libavdevice    58.  9.103 / 58.  9.103   libavfilter     7. 75.100 /  7. 75.100   libswscale      5.  6.100 /  5.  6.100   libswresample   3.  6.100 /  3.  6.100   libpostproc    55.  6.100 / 55.  6.100 Input #0, matroska,webm, from './data/video/1.mkv':   Metadata:     COMPATIBLE_BRANDS: isomiso2avc1mp41     MAJOR_BRAND     : isom     MINOR_VERSION   : 512     ENCODER         : IDMmkvlib0.1     LANGUAGE        : und     HANDLER_NAME    : AudioHandler   Duration: 00:05:42.54, start: 0.000000, bitrate: 281 kb/s     Stream #0:0: Video: vp9 (Profile 0), yuv420p(tv, bt709/unknown/unknown), 426x240, SAR 1:1 DAR 71:40, 23.98 fps, 23.98 tbr, 1k tbn, 1k tbc (default)     Stream #0:1: Audio: opus, 48000 Hz, stereo, fltp (default) Unknown encoder 'libfaac'  [] []
[2020-02-17T07:46:31.694541+01:00] application.INFO: ffprobe running command "bin/ffprobe.exe" -help -loglevel quiet [] []
[2020-02-17T07:46:31.903101+01:00] application.INFO: ffprobe executed command successfully [] []
[2020-02-17T07:46:31.903618+01:00] application.INFO: ffprobe running command "bin/ffprobe.exe" "./data/video/1.mkv" -show_streams -print_format json [] []
[2020-02-17T07:46:32.117705+01:00] application.INFO: ffprobe executed command successfully [] []
[2020-02-17T07:46:32.141103+01:00] application.INFO: ffmpeg running command "bin/ffmpeg.exe" -y -ss 00:00:10.00 -i "./data/video/1.mkv" -vframes 1 -f image2 frame.jpg [] []
[2020-02-17T07:46:32.353988+01:00] application.INFO: ffmpeg executed command successfully [] []
[2020-02-17T07:46:32.364539+01:00] application.INFO: ffmpeg running command "bin/ffmpeg.exe" -y -i "./data/video/1.mkv" -async 1 -metadata:s:v:0 start_time=0 -threads 12 -vcodec libx264 -acodec libfaac -b:v 1000k -refs 6 -coder 1 -sc_threshold 40 -flags +loop -me_range 16 -subq 7 -i_qfactor 0.71 -qcomp 0.6 -qdiff 4 -trellis 1 -b:a 128k -vf "[in]scale=320:240 [out]" -pass 1 -passlogfile "C:\Users\hp\AppData\Local\Temp\ffmpeg-passes5e4a36c8589321n4zu/pass-5e4a36c858b05" export-x264.mp4 [] []
[2020-02-17T07:46:32.568097+01:00] application.INFO: ffprobe running command "bin/ffprobe.exe" "./data/video/1.mkv" -show_format -print_format json [] []
[2020-02-17T07:46:32.772891+01:00] application.INFO: ffprobe executed command successfully [] []
[2020-02-17T07:46:32.773893+01:00] application.ERROR: ffmpeg failed to execute command "bin/ffmpeg.exe" -y -i "./data/video/1.mkv" -async 1 -metadata:s:v:0 start_time=0 -threads 12 -vcodec libx264 -acodec libfaac -b:v 1000k -refs 6 -coder 1 -sc_threshold 40 -flags +loop -me_range 16 -subq 7 -i_qfactor 0.71 -qcomp 0.6 -qdiff 4 -trellis 1 -b:a 128k -vf "[in]scale=320:240 [out]" -pass 1 -passlogfile "C:\Users\hp\AppData\Local\Temp\ffmpeg-passes5e4a36c8589321n4zu/pass-5e4a36c858b05" export-x264.mp4: ffmpeg version git-2020-02-13-6d37ca8 Copyright (c) 2000-2020 the FFmpeg developers   built with gcc 9.2.1 (GCC) 20200122   configuration: --enable-gpl --enable-version3 --enable-sdl2 --enable-fontconfig --enable-gnutls --enable-iconv --enable-libass --enable-libdav1d --enable-libbluray --enable-libfreetype --enable-libmp3lame --enable-libopencore-amrnb --enable-libopencore-amrwb --enable-libopenjpeg --enable-libopus --enable-libshine --enable-libsnappy --enable-libsoxr --enable-libtheora --enable-libtwolame --enable-libvpx --enable-libwavpack --enable-libwebp --enable-libx264 --enable-libx265 --enable-libxml2 --enable-libzimg --enable-lzma --enable-zlib --enable-gmp --enable-libvidstab --enable-libvorbis --enable-libvo-amrwbenc --enable-libmysofa --enable-libspeex --enable-libxvid --enable-libaom --enable-libmfx --enable-ffnvcodec --enable-cuvid --enable-d3d11va --enable-nvenc --enable-nvdec --enable-dxva2 --enable-avisynth --enable-libopenmpt --enable-amf   libavutil      56. 41.100 / 56. 41.100   libavcodec     58. 68.102 / 58. 68.102   libavformat    58. 38.100 / 58. 38.100   libavdevice    58.  9.103 / 58.  9.103   libavfilter     7. 75.100 /  7. 75.100   libswscale      5.  6.100 /  5.  6.100   libswresample   3.  6.100 /  3.  6.100   libpostproc    55.  6.100 / 55.  6.100 Input #0, matroska,webm, from './data/video/1.mkv':   Metadata:     COMPATIBLE_BRANDS: isomiso2avc1mp41     MAJOR_BRAND     : isom     MINOR_VERSION   : 512     ENCODER         : IDMmkvlib0.1     LANGUAGE        : und     HANDLER_NAME    : AudioHandler   Duration: 00:05:42.54, start: 0.000000, bitrate: 281 kb/s     Stream #0:0: Video: vp9 (Profile 0), yuv420p(tv, bt709/unknown/unknown), 426x240, SAR 1:1 DAR 71:40, 23.98 fps, 23.98 tbr, 1k tbn, 1k tbc (default)     Stream #0:1: Audio: opus, 48000 Hz, stereo, fltp (default) Unknown encoder 'libfaac'  [] []
[2020-02-17T07:46:33.349360+01:00] application.INFO: ffprobe running command "bin/ffprobe.exe" -help -loglevel quiet [] []
[2020-02-17T07:46:33.572936+01:00] application.INFO: ffprobe executed command successfully [] []
[2020-02-17T07:46:33.573193+01:00] application.INFO: ffprobe running command "bin/ffprobe.exe" "./data/video/1.mkv" -show_streams -print_format json [] []
[2020-02-17T07:46:33.780067+01:00] application.INFO: ffprobe executed command successfully [] []
[2020-02-17T07:46:33.784869+01:00] application.INFO: ffmpeg running command "bin/ffmpeg.exe" -y -ss 00:00:10.00 -i "./data/video/1.mkv" -vframes 1 -f image2 frame.jpg [] []
[2020-02-17T07:46:33.988509+01:00] application.INFO: ffmpeg executed command successfully [] []
[2020-02-17T07:46:33.995998+01:00] application.INFO: ffmpeg running command "bin/ffmpeg.exe" -y -i "./data/video/1.mkv" -async 1 -metadata:s:v:0 start_time=0 -threads 12 -vcodec libx264 -acodec libfaac -b:v 1000k -refs 6 -coder 1 -sc_threshold 40 -flags +loop -me_range 16 -subq 7 -i_qfactor 0.71 -qcomp 0.6 -qdiff 4 -trellis 1 -b:a 128k -vf "[in]scale=320:240 [out]" -pass 1 -passlogfile "C:\Users\hp\AppData\Local\Temp\ffmpeg-passes5e4a36c9f2983rp21p/pass-5e4a36c9f2ba0" export-x264.mp4 [] []
[2020-02-17T07:46:34.199714+01:00] application.INFO: ffprobe running command "bin/ffprobe.exe" "./data/video/1.mkv" -show_format -print_format json [] []
[2020-02-17T07:46:34.403542+01:00] application.INFO: ffprobe executed command successfully [] []
[2020-02-17T07:46:34.404444+01:00] application.ERROR: ffmpeg failed to execute command "bin/ffmpeg.exe" -y -i "./data/video/1.mkv" -async 1 -metadata:s:v:0 start_time=0 -threads 12 -vcodec libx264 -acodec libfaac -b:v 1000k -refs 6 -coder 1 -sc_threshold 40 -flags +loop -me_range 16 -subq 7 -i_qfactor 0.71 -qcomp 0.6 -qdiff 4 -trellis 1 -b:a 128k -vf "[in]scale=320:240 [out]" -pass 1 -passlogfile "C:\Users\hp\AppData\Local\Temp\ffmpeg-passes5e4a36c9f2983rp21p/pass-5e4a36c9f2ba0" export-x264.mp4: ffmpeg version git-2020-02-13-6d37ca8 Copyright (c) 2000-2020 the FFmpeg developers   built with gcc 9.2.1 (GCC) 20200122   configuration: --enable-gpl --enable-version3 --enable-sdl2 --enable-fontconfig --enable-gnutls --enable-iconv --enable-libass --enable-libdav1d --enable-libbluray --enable-libfreetype --enable-libmp3lame --enable-libopencore-amrnb --enable-libopencore-amrwb --enable-libopenjpeg --enable-libopus --enable-libshine --enable-libsnappy --enable-libsoxr --enable-libtheora --enable-libtwolame --enable-libvpx --enable-libwavpack --enable-libwebp --enable-libx264 --enable-libx265 --enable-libxml2 --enable-libzimg --enable-lzma --enable-zlib --enable-gmp --enable-libvidstab --enable-libvorbis --enable-libvo-amrwbenc --enable-libmysofa --enable-libspeex --enable-libxvid --enable-libaom --enable-libmfx --enable-ffnvcodec --enable-cuvid --enable-d3d11va --enable-nvenc --enable-nvdec --enable-dxva2 --enable-avisynth --enable-libopenmpt --enable-amf   libavutil      56. 41.100 / 56. 41.100   libavcodec     58. 68.102 / 58. 68.102   libavformat    58. 38.100 / 58. 38.100   libavdevice    58.  9.103 / 58.  9.103   libavfilter     7. 75.100 /  7. 75.100   libswscale      5.  6.100 /  5.  6.100   libswresample   3.  6.100 /  3.  6.100   libpostproc    55.  6.100 / 55.  6.100 Input #0, matroska,webm, from './data/video/1.mkv':   Metadata:     COMPATIBLE_BRANDS: isomiso2avc1mp41     MAJOR_BRAND     : isom     MINOR_VERSION   : 512     ENCODER         : IDMmkvlib0.1     LANGUAGE        : und     HANDLER_NAME    : AudioHandler   Duration: 00:05:42.54, start: 0.000000, bitrate: 281 kb/s     Stream #0:0: Video: vp9 (Profile 0), yuv420p(tv, bt709/unknown/unknown), 426x240, SAR 1:1 DAR 71:40, 23.98 fps, 23.98 tbr, 1k tbn, 1k tbc (default)     Stream #0:1: Audio: opus, 48000 Hz, stereo, fltp (default) Unknown encoder 'libfaac'  [] []
[2020-02-17T07:53:44.625565+01:00] application.INFO: _-_-_------__--------------______--_____--------__-___------_--\|/ [] []
[2020-02-17T07:53:44.646589+01:00] application.INFO: ffprobe running command "bin/ffprobe.exe" -help -loglevel quiet [] []
[2020-02-17T07:53:44.851216+01:00] application.INFO: ffprobe executed command successfully [] []
[2020-02-17T07:53:44.851394+01:00] application.INFO: ffprobe running command "bin/ffprobe.exe" "./data/video/1.mkv" -show_streams -print_format json [] []
[2020-02-17T07:53:45.054775+01:00] application.INFO: ffprobe executed command successfully [] []
[2020-02-17T07:53:45.064221+01:00] application.INFO: ffmpeg running command "bin/ffmpeg.exe" -y -ss 00:00:10.00 -i "./data/video/1.mkv" -vframes 1 -f image2 frame.jpg [] []
[2020-02-17T07:53:45.274324+01:00] application.INFO: ffmpeg executed command successfully [] []
[2020-02-17T07:53:45.282847+01:00] application.INFO: ffmpeg running command "bin/ffmpeg.exe" -y -i "./data/video/1.mkv" -async 1 -metadata:s:v:0 start_time=0 -threads 12 -vcodec libx264 -acodec libfaac -b:v 1000k -refs 6 -coder 1 -sc_threshold 40 -flags +loop -me_range 16 -subq 7 -i_qfactor 0.71 -qcomp 0.6 -qdiff 4 -trellis 1 -b:a 128k -vf "[in]scale=320:240 [out]" -pass 1 -passlogfile "C:\Users\hp\AppData\Local\Temp\ffmpeg-passes5e4a387944a3fflpuv/pass-5e4a387944c0d" export-x264.mp4 [] []
[2020-02-17T07:53:45.491184+01:00] application.INFO: ffprobe running command "bin/ffprobe.exe" "./data/video/1.mkv" -show_format -print_format json [] []
[2020-02-17T07:53:45.696995+01:00] application.INFO: ffprobe executed command successfully [] []
[2020-02-17T07:53:45.698033+01:00] application.ERROR: ffmpeg failed to execute command "bin/ffmpeg.exe" -y -i "./data/video/1.mkv" -async 1 -metadata:s:v:0 start_time=0 -threads 12 -vcodec libx264 -acodec libfaac -b:v 1000k -refs 6 -coder 1 -sc_threshold 40 -flags +loop -me_range 16 -subq 7 -i_qfactor 0.71 -qcomp 0.6 -qdiff 4 -trellis 1 -b:a 128k -vf "[in]scale=320:240 [out]" -pass 1 -passlogfile "C:\Users\hp\AppData\Local\Temp\ffmpeg-passes5e4a387944a3fflpuv/pass-5e4a387944c0d" export-x264.mp4: ffmpeg version git-2020-02-13-6d37ca8 Copyright (c) 2000-2020 the FFmpeg developers   built with gcc 9.2.1 (GCC) 20200122   configuration: --enable-gpl --enable-version3 --enable-sdl2 --enable-fontconfig --enable-gnutls --enable-iconv --enable-libass --enable-libdav1d --enable-libbluray --enable-libfreetype --enable-libmp3lame --enable-libopencore-amrnb --enable-libopencore-amrwb --enable-libopenjpeg --enable-libopus --enable-libshine --enable-libsnappy --enable-libsoxr --enable-libtheora --enable-libtwolame --enable-libvpx --enable-libwavpack --enable-libwebp --enable-libx264 --enable-libx265 --enable-libxml2 --enable-libzimg --enable-lzma --enable-zlib --enable-gmp --enable-libvidstab --enable-libvorbis --enable-libvo-amrwbenc --enable-libmysofa --enable-libspeex --enable-libxvid --enable-libaom --enable-libmfx --enable-ffnvcodec --enable-cuvid --enable-d3d11va --enable-nvenc --enable-nvdec --enable-dxva2 --enable-avisynth --enable-libopenmpt --enable-amf   libavutil      56. 41.100 / 56. 41.100   libavcodec     58. 68.102 / 58. 68.102   libavformat    58. 38.100 / 58. 38.100   libavdevice    58.  9.103 / 58.  9.103   libavfilter     7. 75.100 /  7. 75.100   libswscale      5.  6.100 /  5.  6.100   libswresample   3.  6.100 /  3.  6.100   libpostproc    55.  6.100 / 55.  6.100 Input #0, matroska,webm, from './data/video/1.mkv':   Metadata:     COMPATIBLE_BRANDS: isomiso2avc1mp41     MAJOR_BRAND     : isom     MINOR_VERSION   : 512     ENCODER         : IDMmkvlib0.1     LANGUAGE        : und     HANDLER_NAME    : AudioHandler   Duration: 00:05:42.54, start: 0.000000, bitrate: 281 kb/s     Stream #0:0: Video: vp9 (Profile 0), yuv420p(tv, bt709/unknown/unknown), 426x240, SAR 1:1 DAR 71:40, 23.98 fps, 23.98 tbr, 1k tbn, 1k tbc (default)     Stream #0:1: Audio: opus, 48000 Hz, stereo, fltp (default) Unknown encoder 'libfaac'  [] []
[2020-02-17T07:53:46.398187+01:00] application.INFO: _-_-_------__--------------______--_____--------__-___------_--\|/ [] []
[2020-02-17T07:53:46.445290+01:00] application.INFO: ffprobe running command "bin/ffprobe.exe" -help -loglevel quiet [] []
[2020-02-17T07:53:46.653614+01:00] application.INFO: ffprobe executed command successfully [] []
[2020-02-17T07:53:46.653873+01:00] application.INFO: ffprobe running command "bin/ffprobe.exe" "./data/video/1.mkv" -show_streams -print_format json [] []
[2020-02-17T07:53:46.859056+01:00] application.INFO: ffprobe executed command successfully [] []
[2020-02-17T07:53:46.867670+01:00] application.INFO: ffmpeg running command "bin/ffmpeg.exe" -y -ss 00:00:10.00 -i "./data/video/1.mkv" -vframes 1 -f image2 frame.jpg [] []
[2020-02-17T07:53:47.072353+01:00] application.INFO: ffmpeg executed command successfully [] []
[2020-02-17T07:53:47.079839+01:00] application.INFO: ffmpeg running command "bin/ffmpeg.exe" -y -i "./data/video/1.mkv" -async 1 -metadata:s:v:0 start_time=0 -threads 12 -vcodec libx264 -acodec libfaac -b:v 1000k -refs 6 -coder 1 -sc_threshold 40 -flags +loop -me_range 16 -subq 7 -i_qfactor 0.71 -qcomp 0.6 -qdiff 4 -trellis 1 -b:a 128k -vf "[in]scale=320:240 [out]" -pass 1 -passlogfile "C:\Users\hp\AppData\Local\Temp\ffmpeg-passes5e4a387b1303cjr8dt/pass-5e4a387b13232" export-x264.mp4 [] []
[2020-02-17T07:53:47.284376+01:00] application.INFO: ffprobe running command "bin/ffprobe.exe" "./data/video/1.mkv" -show_format -print_format json [] []
[2020-02-17T07:53:47.490186+01:00] application.INFO: ffprobe executed command successfully [] []
[2020-02-17T07:53:47.491464+01:00] application.ERROR: ffmpeg failed to execute command "bin/ffmpeg.exe" -y -i "./data/video/1.mkv" -async 1 -metadata:s:v:0 start_time=0 -threads 12 -vcodec libx264 -acodec libfaac -b:v 1000k -refs 6 -coder 1 -sc_threshold 40 -flags +loop -me_range 16 -subq 7 -i_qfactor 0.71 -qcomp 0.6 -qdiff 4 -trellis 1 -b:a 128k -vf "[in]scale=320:240 [out]" -pass 1 -passlogfile "C:\Users\hp\AppData\Local\Temp\ffmpeg-passes5e4a387b1303cjr8dt/pass-5e4a387b13232" export-x264.mp4: ffmpeg version git-2020-02-13-6d37ca8 Copyright (c) 2000-2020 the FFmpeg developers   built with gcc 9.2.1 (GCC) 20200122   configuration: --enable-gpl --enable-version3 --enable-sdl2 --enable-fontconfig --enable-gnutls --enable-iconv --enable-libass --enable-libdav1d --enable-libbluray --enable-libfreetype --enable-libmp3lame --enable-libopencore-amrnb --enable-libopencore-amrwb --enable-libopenjpeg --enable-libopus --enable-libshine --enable-libsnappy --enable-libsoxr --enable-libtheora --enable-libtwolame --enable-libvpx --enable-libwavpack --enable-libwebp --enable-libx264 --enable-libx265 --enable-libxml2 --enable-libzimg --enable-lzma --enable-zlib --enable-gmp --enable-libvidstab --enable-libvorbis --enable-libvo-amrwbenc --enable-libmysofa --enable-libspeex --enable-libxvid --enable-libaom --enable-libmfx --enable-ffnvcodec --enable-cuvid --enable-d3d11va --enable-nvenc --enable-nvdec --enable-dxva2 --enable-avisynth --enable-libopenmpt --enable-amf   libavutil      56. 41.100 / 56. 41.100   libavcodec     58. 68.102 / 58. 68.102   libavformat    58. 38.100 / 58. 38.100   libavdevice    58.  9.103 / 58.  9.103   libavfilter     7. 75.100 /  7. 75.100   libswscale      5.  6.100 /  5.  6.100   libswresample   3.  6.100 /  3.  6.100   libpostproc    55.  6.100 / 55.  6.100 Input #0, matroska,webm, from './data/video/1.mkv':   Metadata:     COMPATIBLE_BRANDS: isomiso2avc1mp41     MAJOR_BRAND     : isom     MINOR_VERSION   : 512     ENCODER         : IDMmkvlib0.1     LANGUAGE        : und     HANDLER_NAME    : AudioHandler   Duration: 00:05:42.54, start: 0.000000, bitrate: 281 kb/s     Stream #0:0: Video: vp9 (Profile 0), yuv420p(tv, bt709/unknown/unknown), 426x240, SAR 1:1 DAR 71:40, 23.98 fps, 23.98 tbr, 1k tbn, 1k tbc (default)     Stream #0:1: Audio: opus, 48000 Hz, stereo, fltp (default) Unknown encoder 'libfaac'  [] []
[2020-02-17T08:11:22.792491+01:00] application.INFO: _-_-_------__--------------______--_____--------__-___------_--\|/ [] []
[2020-02-17T08:11:22.820142+01:00] application.INFO: ffprobe running command "bin/ffprobe.exe" -help -loglevel quiet [] []
[2020-02-17T08:11:23.025455+01:00] application.INFO: ffprobe executed command successfully [] []
[2020-02-17T08:11:23.025659+01:00] application.INFO: ffprobe running command "bin/ffprobe.exe" "./data/video/1.mkv" -show_streams -print_format json [] []
[2020-02-17T08:11:23.229754+01:00] application.INFO: ffprobe executed command successfully [] []
[2020-02-17T08:11:23.239812+01:00] application.INFO: ffmpeg running command "bin/ffmpeg.exe" -y -ss 00:00:10.00 -i "./data/video/1.mkv" -vframes 1 -f image2 frame.jpg [] []
[2020-02-17T08:11:23.444497+01:00] application.INFO: ffmpeg executed command successfully [] []
[2020-02-17T08:11:23.455101+01:00] application.INFO: ffmpeg running command "bin/ffmpeg.exe" -y -i "./data/video/1.mkv" -async 1 -metadata:s:v:0 start_time=0 -threads 12 -vcodec libx264 -acodec aac -b:v 1000k -refs 6 -coder 1 -sc_threshold 40 -flags +loop -me_range 16 -subq 7 -i_qfactor 0.71 -qcomp 0.6 -qdiff 4 -trellis 1 -b:a 128k -vf "[in]scale=320:240 [out]" -pass 1 -passlogfile "C:\Users\hp\AppData\Local\Temp\ffmpeg-passes5e4a3c9b6ea0as5c4x/pass-5e4a3c9b6ebf4" export-x264.mp4 [] []
[2020-02-17T08:11:23.661034+01:00] application.INFO: ffprobe running command "bin/ffprobe.exe" "./data/video/1.mkv" -show_format -print_format json [] []
[2020-02-17T08:11:23.868237+01:00] application.INFO: ffprobe executed command successfully [] []
[2020-02-17T08:11:35.506028+01:00] application.INFO: ffmpeg executed command successfully [] []
[2020-02-17T08:11:35.506205+01:00] application.INFO: ffmpeg running command "bin/ffmpeg.exe" -y -i "./data/video/1.mkv" -async 1 -metadata:s:v:0 start_time=0 -threads 12 -vcodec libx264 -acodec aac -b:v 1000k -refs 6 -coder 1 -sc_threshold 40 -flags +loop -me_range 16 -subq 7 -i_qfactor 0.71 -qcomp 0.6 -qdiff 4 -trellis 1 -b:a 128k -vf "[in]scale=320:240 [out]" -pass 2 -passlogfile "C:\Users\hp\AppData\Local\Temp\ffmpeg-passes5e4a3c9b6ea0as5c4x/pass-5e4a3c9b6ebf4" export-x264.mp4 [] []
[2020-02-17T08:12:09.524331+01:00] application.INFO: ffmpeg executed command successfully [] []
[2020-02-17T08:12:09.532150+01:00] application.INFO: ffmpeg running command "bin/ffmpeg.exe" -y -i "./data/video/1.mkv" -async 1 -metadata:s:v:0 start_time=0 -threads 12 -vcodec wmv2 -acodec wmav2 -b:v 1000k -refs 6 -coder 1 -sc_threshold 40 -flags +loop -me_range 16 -subq 7 -i_qfactor 0.71 -qcomp 0.6 -qdiff 4 -trellis 1 -b:a 128k -vf "[in]scale=320:240 [out]" export-wmv.wmv [] []
[2020-02-17T08:12:34.170859+01:00] application.INFO: ffmpeg executed command successfully [] []
[2020-02-17T08:12:34.173607+01:00] application.INFO: ffmpeg running command "bin/ffmpeg.exe" -y -i "./data/video/1.mkv" -async 1 -metadata:s:v:0 start_time=0 -f webm -threads 12 -vcodec libvpx -acodec libvorbis -b:v 1000k -refs 6 -coder 1 -sc_threshold 40 -flags +loop -me_range 16 -subq 7 -i_qfactor 0.71 -qcomp 0.6 -qdiff 4 -trellis 1 -b:a 128k -vf "[in]scale=320:240 [out]" export-webm.webm [] []
[2020-02-17T08:13:23.867732+01:00] application.INFO: _-_-_------__--------------______--_____--------__-___------_--\|/ [] []
[2020-02-17T08:13:23.937447+01:00] application.INFO: ffprobe running command "bin/ffprobe.exe" -help -loglevel quiet [] []
[2020-02-17T08:13:24.374595+01:00] application.INFO: ffprobe executed command successfully [] []
[2020-02-17T08:13:24.378312+01:00] application.INFO: ffprobe running command "bin/ffprobe.exe" "./data/video/1.mkv" -show_streams -print_format json [] []
[2020-02-17T08:13:24.790913+01:00] application.INFO: ffprobe executed command successfully [] []
[2020-02-17T08:13:24.800590+01:00] application.INFO: ffmpeg running command "bin/ffmpeg.exe" -y -ss 00:00:10.00 -i "./data/video/1.mkv" -vframes 1 -f image2 frame.jpg [] []
[2020-02-17T08:13:25.216012+01:00] application.INFO: ffmpeg executed command successfully [] []
[2020-02-17T08:13:25.232132+01:00] application.INFO: ffmpeg running command "bin/ffmpeg.exe" -y -i "./data/video/1.mkv" -async 1 -metadata:s:v:0 start_time=0 -threads 12 -vcodec libx264 -acodec aac -b:v 1000k -refs 6 -coder 1 -sc_threshold 40 -flags +loop -me_range 16 -subq 7 -i_qfactor 0.71 -qcomp 0.6 -qdiff 4 -trellis 1 -b:a 128k -vf "[in]scale=320:240 [out]" -pass 1 -passlogfile "C:\Users\hp\AppData\Local\Temp\ffmpeg-passes5e4a3d15371c4bjber/pass-5e4a3d15384a8" export-x264.mp4 [] []
[2020-02-17T08:13:25.442006+01:00] application.INFO: ffprobe running command "bin/ffprobe.exe" "./data/video/1.mkv" -show_format -print_format json [] []
[2020-02-17T08:13:25.895635+01:00] application.INFO: ffprobe executed command successfully [] []
[2020-02-17T08:13:58.584086+01:00] application.INFO: ffmpeg executed command successfully [] []
[2020-02-17T08:13:58.584383+01:00] application.INFO: ffmpeg running command "bin/ffmpeg.exe" -y -i "./data/video/1.mkv" -async 1 -metadata:s:v:0 start_time=0 -threads 12 -vcodec libx264 -acodec aac -b:v 1000k -refs 6 -coder 1 -sc_threshold 40 -flags +loop -me_range 16 -subq 7 -i_qfactor 0.71 -qcomp 0.6 -qdiff 4 -trellis 1 -b:a 128k -vf "[in]scale=320:240 [out]" -pass 2 -passlogfile "C:\Users\hp\AppData\Local\Temp\ffmpeg-passes5e4a3d15371c4bjber/pass-5e4a3d15384a8" export-x264.mp4 [] []
[2020-02-17T08:14:43.041764+01:00] application.INFO: ffmpeg executed command successfully [] []
[2020-02-17T08:14:43.054146+01:00] application.INFO: ffmpeg running command "bin/ffmpeg.exe" -y -i "./data/video/1.mkv" -async 1 -metadata:s:v:0 start_time=0 -threads 12 -vcodec wmv2 -acodec wmav2 -b:v 1000k -refs 6 -coder 1 -sc_threshold 40 -flags +loop -me_range 16 -subq 7 -i_qfactor 0.71 -qcomp 0.6 -qdiff 4 -trellis 1 -b:a 128k -vf "[in]scale=320:240 [out]" export-wmv.wmv [] []
[2020-02-17T08:15:01.398562+01:00] application.INFO: ffmpeg executed command successfully [] []
[2020-02-17T08:15:01.405560+01:00] application.INFO: ffmpeg running command "bin/ffmpeg.exe" -y -i "./data/video/1.mkv" -async 1 -metadata:s:v:0 start_time=0 -f webm -threads 12 -vcodec libvpx -acodec libvorbis -b:v 1000k -refs 6 -coder 1 -sc_threshold 40 -flags +loop -me_range 16 -subq 7 -i_qfactor 0.71 -qcomp 0.6 -qdiff 4 -trellis 1 -b:a 128k -vf "[in]scale=320:240 [out]" export-webm.webm [] []
[2020-02-17T08:21:46.217411+01:00] application.INFO: _-_-_------__--------------______--_____--------__-___------_--\|/ [] []
[2020-02-17T08:21:46.243673+01:00] application.INFO: ffprobe running command "bin/ffprobe.exe" -help -loglevel quiet [] []
[2020-02-17T08:21:46.448814+01:00] application.INFO: ffprobe executed command successfully [] []
[2020-02-17T08:21:46.448968+01:00] application.INFO: ffprobe running command "bin/ffprobe.exe" "./data/video/1.mkv" -show_streams -print_format json [] []
[2020-02-17T08:21:46.655099+01:00] application.INFO: ffprobe executed command successfully [] []
[2020-02-17T08:21:46.660139+01:00] application.INFO: ffmpeg running command "bin/ffmpeg.exe" -y -ss 00:00:10.00 -i "./data/video/1.mkv" -vframes 1 -f image2 frame.jpg [] []
[2020-02-17T08:21:46.863659+01:00] application.INFO: ffmpeg executed command successfully [] []
[2020-02-17T08:21:46.870913+01:00] application.INFO: ffmpeg running command "bin/ffmpeg.exe" -y -i "./data/video/1.mkv" -async 1 -metadata:s:v:0 start_time=0 -threads 12 -vcodec libx264 -acodec aac -b:v 1000k -refs 6 -coder 1 -sc_threshold 40 -flags +loop -me_range 16 -subq 7 -i_qfactor 0.71 -qcomp 0.6 -qdiff 4 -trellis 1 -b:a 128k -vf "[in]scale=320:240 [out]" -pass 1 -passlogfile "C:\Users\hp\AppData\Local\Temp\ffmpeg-passes5e4a3f0ad4515ivrfg/pass-5e4a3f0ad4664" "./exportedVideo/export-x264.mp4" [] []
[2020-02-17T08:21:47.073761+01:00] application.INFO: ffprobe running command "bin/ffprobe.exe" "./data/video/1.mkv" -show_format -print_format json [] []
[2020-02-17T08:21:47.284161+01:00] application.INFO: ffprobe executed command successfully [] []
[2020-02-17T08:21:58.923438+01:00] application.INFO: ffmpeg executed command successfully [] []
[2020-02-17T08:21:58.923618+01:00] application.INFO: ffmpeg running command "bin/ffmpeg.exe" -y -i "./data/video/1.mkv" -async 1 -metadata:s:v:0 start_time=0 -threads 12 -vcodec libx264 -acodec aac -b:v 1000k -refs 6 -coder 1 -sc_threshold 40 -flags +loop -me_range 16 -subq 7 -i_qfactor 0.71 -qcomp 0.6 -qdiff 4 -trellis 1 -b:a 128k -vf "[in]scale=320:240 [out]" -pass 2 -passlogfile "C:\Users\hp\AppData\Local\Temp\ffmpeg-passes5e4a3f0ad4515ivrfg/pass-5e4a3f0ad4664" "./exportedVideo/export-x264.mp4" [] []
[2020-02-17T08:22:28.988940+01:00] application.INFO: ffmpeg executed command successfully [] []
[2020-02-17T08:22:29.002965+01:00] application.INFO: ffmpeg running command "bin/ffmpeg.exe" -y -i "./data/video/1.mkv" -async 1 -metadata:s:v:0 start_time=0 -threads 12 -vcodec wmv2 -acodec wmav2 -b:v 1000k -refs 6 -coder 1 -sc_threshold 40 -flags +loop -me_range 16 -subq 7 -i_qfactor 0.71 -qcomp 0.6 -qdiff 4 -trellis 1 -b:a 128k -vf "[in]scale=320:240 [out]" "./exportedVideo/export-wmv.wmv" [] []
[2020-02-17T08:22:46.657581+01:00] application.INFO: ffmpeg executed command successfully [] []
[2020-02-17T08:22:46.665983+01:00] application.INFO: ffmpeg running command "bin/ffmpeg.exe" -y -i "./data/video/1.mkv" -async 1 -metadata:s:v:0 start_time=0 -f webm -threads 12 -vcodec libvpx -acodec libvorbis -b:v 1000k -refs 6 -coder 1 -sc_threshold 40 -flags +loop -me_range 16 -subq 7 -i_qfactor 0.71 -qcomp 0.6 -qdiff 4 -trellis 1 -b:a 128k -vf "[in]scale=320:240 [out]" "./exportedVideo/export-webm.webm" [] []
